<svg width="49" height="49" viewBox="0 0 49 49" fill="none" xmlns="http://www.w3.org/2000/svg">
<path d="M35.7656 16.3352C35.9549 16.1603 36.0136 15.8942 35.914 15.6621C35.8144 15.4301 35.5765 15.2783 35.3121 15.2783H28.8175C28.4586 15.2783 28.1677 15.554 28.1677 15.8941V18.856L25.7364 24.8302L21.2771 15.6369C21.1711 15.4184 20.9405 15.2784 20.6867 15.2784H14.6041C14.3531 15.2784 14.1246 15.4154 14.017 15.6302C13.9095 15.8451 13.9421 16.0995 14.1009 16.2837L16.8506 19.4744V27.3565L13.922 30.9168C13.7693 31.1024 13.7416 31.3542 13.8506 31.5657C13.9596 31.7771 14.1861 31.9112 14.4344 31.9112H20.5662C20.8145 31.9112 21.0411 31.7771 21.1501 31.5657C21.259 31.3542 21.2313 31.1024 21.0787 30.9168L18.1501 27.3565V21.8822L23.2196 31.569C23.3297 31.7793 23.5556 31.9112 23.8016 31.9112C23.8115 31.9112 23.8216 31.911 23.8317 31.9105C24.089 31.8993 24.3151 31.7449 24.4079 31.517L28.1679 22.2783V28.792L26.4201 30.9168C26.2675 31.1024 26.2398 31.3541 26.3487 31.5656C26.4577 31.7771 26.6843 31.9112 26.9326 31.9112H35.0448C35.2931 31.9112 35.5197 31.7771 35.6286 31.5656C35.7376 31.3542 35.7099 31.1024 35.5572 30.9168L33.8094 28.792V18.1423L35.7656 16.3352Z" fill="black"/>
</svg>
