<svg width="19" height="18" viewBox="0 0 19 18" fill="none" xmlns="http://www.w3.org/2000/svg">
<path d="M7.37186 3.66964L4.68994 6.32143H1.61628C1.19441 6.32143 0.893066 6.6529 0.893066 7.04464V11.3839C0.893066 11.8058 1.19441 12.1071 1.61628 12.1071H4.68994L7.37186 14.7891C7.82387 15.2411 8.60735 14.9397 8.60735 14.2768V4.18192C8.60735 3.51897 7.82387 3.21763 7.37186 3.66964ZM14.3931 2.10268C14.0616 1.89174 13.6096 1.98214 13.3685 2.31362C13.1576 2.67522 13.248 3.12723 13.5795 3.33817C15.5984 4.63393 16.7736 6.86384 16.7736 9.24442C16.7736 11.5949 15.5984 13.8248 13.5795 15.1205C13.248 15.3315 13.1576 15.7835 13.3685 16.1451C13.5795 16.4464 14.0315 16.567 14.3931 16.356C16.8038 14.7589 18.2502 12.1071 18.2502 9.21429C18.2502 6.35156 16.8038 3.69978 14.3931 2.10268ZM15.3574 9.21429C15.3574 7.31585 14.3629 5.56808 12.7658 4.51339C12.4344 4.30246 11.9824 4.39286 11.7714 4.75446C11.5605 5.08594 11.6509 5.53795 11.9824 5.74888C13.1877 6.50223 13.9109 7.82812 13.9109 9.21429C13.9109 10.6306 13.1877 11.9565 11.9824 12.7098C11.6509 12.9208 11.5605 13.3728 11.7714 13.7042C11.9522 14.0357 12.4042 14.1562 12.7658 13.9453C14.3629 12.8906 15.3574 11.1429 15.3574 9.21429ZM11.0783 6.92411C10.7167 6.71317 10.2949 6.83371 10.0839 7.19531C9.90311 7.55692 10.0236 7.97879 10.3853 8.18973C10.7469 8.40067 11.0181 8.79241 11.0181 9.21429C11.0181 9.66629 10.7469 10.058 10.3853 10.269C10.0236 10.4799 9.90311 10.9018 10.0839 11.2634C10.2949 11.625 10.7167 11.7455 11.0783 11.5346C11.9221 11.0826 12.4645 10.1786 12.4645 9.21429C12.4645 8.28013 11.9221 7.37612 11.0783 6.92411Z" fill="black"/>
</svg>
