<svg width="19" height="18" viewBox="0 0 19 18" fill="none" xmlns="http://www.w3.org/2000/svg">
<path d="M6.81229 3.66964L4.13037 6.32143H1.05671C0.634835 6.32143 0.333496 6.6529 0.333496 7.04464V11.3839C0.333496 11.8058 0.634835 12.1071 1.05671 12.1071H4.13037L6.81229 14.7891C7.2643 15.2411 8.04778 14.9397 8.04778 14.2768V4.18192C8.04778 3.51897 7.2643 3.21763 6.81229 3.66964ZM13.8335 2.10268C13.502 1.89174 13.05 1.98214 12.8089 2.31362C12.598 2.67522 12.6884 3.12723 13.0199 3.33817C15.0389 4.63393 16.2141 6.86384 16.2141 9.24442C16.2141 11.5949 15.0389 13.8248 13.0199 15.1205C12.6884 15.3315 12.598 15.7835 12.8089 16.1451C13.0199 16.4464 13.4719 16.567 13.8335 16.356C16.2442 14.7589 17.6906 12.1071 17.6906 9.21429C17.6906 6.35156 16.2442 3.69978 13.8335 2.10268ZM14.7978 9.21429C14.7978 7.31585 13.8034 5.56808 12.2063 4.51339C11.8748 4.30246 11.4228 4.39286 11.2118 4.75446C11.0009 5.08594 11.0913 5.53795 11.4228 5.74888C12.6281 6.50223 13.3514 7.82812 13.3514 9.21429C13.3514 10.6306 12.6281 11.9565 11.4228 12.7098C11.0913 12.9208 11.0009 13.3728 11.2118 13.7042C11.3926 14.0357 11.8447 14.1562 12.2063 13.9453C13.8034 12.8906 14.7978 11.1429 14.7978 9.21429ZM10.5188 6.92411C10.1572 6.71317 9.73528 6.83371 9.52434 7.19531C9.34354 7.55692 9.46408 7.97879 9.82568 8.18973C10.1873 8.40067 10.4585 8.79241 10.4585 9.21429C10.4585 9.66629 10.1873 10.058 9.82568 10.269C9.46408 10.4799 9.34354 10.9018 9.52434 11.2634C9.73528 11.625 10.1572 11.7455 10.5188 11.5346C11.3625 11.0826 11.9049 10.1786 11.9049 9.21429C11.9049 8.28013 11.3625 7.37612 10.5188 6.92411Z" fill="black"/>
</svg>
