<svg width="27" height="20" viewBox="0 0 27 20" fill="none" xmlns="http://www.w3.org/2000/svg">
<path d="M26.2351 1.52664C26.4546 1.32385 26.5227 1.01526 26.4072 0.74605C26.2917 0.476933 26.0157 0.300903 25.7091 0.300903H18.1765C17.7603 0.300903 17.423 0.620681 17.423 1.01512V4.45035L14.603 11.3794L9.43101 0.716815C9.30807 0.463363 9.04061 0.300951 8.74632 0.300951H1.69155C1.40048 0.300951 1.13547 0.45984 1.01068 0.709053C0.885996 0.958267 0.923825 1.25333 1.10794 1.46698L4.29711 5.16761V14.3094L0.900464 18.4387C0.723428 18.6539 0.691276 18.946 0.817673 19.1913C0.94407 19.4365 1.20681 19.592 1.49482 19.592H8.60656C8.89452 19.592 9.15731 19.4365 9.28371 19.1913C9.41011 18.946 9.37795 18.6539 9.20092 18.4387L5.80433 14.3094V7.96019L11.684 19.1951C11.8116 19.439 12.0737 19.592 12.359 19.592C12.3705 19.592 12.3822 19.5918 12.3939 19.5912C12.6924 19.5782 12.9546 19.3991 13.0622 19.1348L17.4231 8.41958V15.9743L15.396 18.4386C15.219 18.6539 15.1868 18.9459 15.3132 19.1912C15.4396 19.4364 15.7024 19.592 15.9904 19.592H25.3991C25.687 19.592 25.9498 19.4364 26.0762 19.1912C26.2026 18.946 26.1704 18.6539 25.9934 18.4386L23.9663 15.9743V3.62257L26.2351 1.52664Z" fill="#D8D8D8"/>
</svg>
